ffmpeg version 8.0.1 Copyright (c) 2000-2025 the FFmpeg developers
  built with Apple clang version 17.0.0 (clang-1700.4.4.1)
  configuration: --prefix=/opt/homebrew/Cellar/ffmpeg/8.0.1 --enable-shared --enable-pthreads --enable-version3 --cc=clang --host-cflags= --host-ldflags= --enable-ffplay --enable-gnutls --enable-gpl --enable-libaom --enable-libaribb24 --enable-libbluray --enable-libdav1d --enable-libharfbuzz --enable-libjxl --enable-libmp3lame --enable-libopus --enable-librav1e --enable-librist --enable-librubberband --enable-libsnappy --enable-libsrt --enable-libssh --enable-libsvtav1 --enable-libtesseract --enable-libtheora --enable-libvidstab --enable-libvmaf --enable-libvorbis --enable-libvpx --enable-libwebp --enable-libx264 --enable-libx265 --enable-libxml2 --enable-libxvid --enable-lzma --enable-libfontconfig --enable-libfreetype --enable-frei0r --enable-libass --enable-libopencore-amrnb --enable-libopencore-amrwb --enable-libopenjpeg --enable-libspeex --enable-libsoxr --enable-libzmq --enable-libzimg --disable-libjack --disable-indev=jack --enable-videotoolbox --enable-audiotoolbox --enable-neon
  libavutil      60.  8.100 / 60.  8.100
  libavcodec     62. 11.100 / 62. 11.100
  libavformat    62.  3.100 / 62.  3.100
  libavdevice    62.  1.100 / 62.  1.100
  libavfilter    11.  4.100 / 11.  4.100
  libswscale      9.  1.100 /  9.  1.100
  libswresample   6.  1.100 /  6.  1.100
[aist#0:0/pcm_s16le @ 0xbc8c34180] Guessed Channel Layout: mono
Input #0, wav, from 'dialogue_2.wav':
  Duration: 00:00:20.49, bitrate: 384 kb/s
  Stream #0:0: Audio: pcm_s16le ([1][0][0][0] / 0x0001), 24000 Hz, mono, s16, 384 kb/s
Stream mapping:
  Stream #0:0 -> #0:0 (pcm_s16le (native) -> pcm_s16le (native))
Press [q] to stop, [?] for help
Output #0, null, to 'pipe:':
  Metadata:
    encoder         : Lavf62.3.100
  Stream #0:0: Audio: pcm_s16le, 24000 Hz, mono, s16, 384 kb/s
    Metadata:
      encoder         : Lavc62.11.100 pcm_s16le
[silencedetect @ 0xbc9058420] silence_start: 0
[silencedetect @ 0xbc9058420] silence_end: 0.254292 | silence_duration: 0.254292
[silencedetect @ 0xbc9058420] silence_start: 1.665375
[silencedetect @ 0xbc9058420] silence_end: 2.106333 | silence_duration: 0.440958
[silencedetect @ 0xbc9058420] silence_start: 3.429667
[silencedetect @ 0xbc9058420] silence_end: 4.024875 | silence_duration: 0.595208
[silencedetect @ 0xbc9058420] silence_start: 5.148125
[silencedetect @ 0xbc9058420] silence_end: 5.506625 | silence_duration: 0.3585
[silencedetect @ 0xbc9058420] silence_start: 5.728083
[silencedetect @ 0xbc9058420] silence_end: 6.060292 | silence_duration: 0.332208
[silencedetect @ 0xbc9058420] silence_start: 7.654958
[silencedetect @ 0xbc9058420] silence_end: 8.098708 | silence_duration: 0.44375
[silencedetect @ 0xbc9058420] silence_start: 10.84175
[silencedetect @ 0xbc9058420] silence_end: 11.226958 | silence_duration: 0.385208
[silencedetect @ 0xbc9058420] silence_start: 16.36275
[silencedetect @ 0xbc9058420] silence_end: 16.658292 | silence_duration: 0.295542
[silencedetect @ 0xbc9058420] silence_start: 16.883958
[silencedetect @ 0xbc9058420] silence_end: 17.187167 | silence_duration: 0.303208
[silencedetect @ 0xbc9058420] silence_start: 18.609208
[silencedetect @ 0xbc9058420] silence_end: 19.061417 | silence_duration: 0.452208
[out#0/null @ 0xbc905c180] video:0KiB audio:961KiB subtitle:0KiB other streams:0KiB global headers:0KiB muxing overhead: unknown
size=N/A time=00:00:20.49 bitrate=N/A speed=4.84e+03x elapsed=0:00:00.00    
